<svg xmlns="http://www.w3.org/2000/svg" width="420" height="92" viewBox="0 0 420 92" role="img" aria-labelledby="title desc">
  <title id="title">Allied Savings</title>
  <desc id="desc">Allied Savings wordmark with shield monogram</desc>
  <rect width="420" height="92" fill="none"/>
  <g transform="translate(8 10)">
    <path d="M36 0 68 12v23c0 20-13 32-32 39C17 67 4 55 4 35V12L36 0Z" fill="#0b6b57"/>
    <path d="M36 8 59 17v18c0 14-9 23-23 29C22 58 13 49 13 35V17L36 8Z" fill="#ffffff" opacity=".94"/>
    <path d="M24 47 36 17l12 30h-7l-2-6h-6l-2 6h-7Zm11-12h3l-1.5-6-1.5 6Z" fill="#0b6b57"/>
  </g>
  <g fill="#12384d">
    <text x="91" y="42" font-family="Segoe UI, Arial, Helvetica, sans-serif" font-size="31" font-weight="800" letter-spacing="0">Allied</text>
    <text x="91" y="70" font-family="Segoe UI, Arial, Helvetica, sans-serif" font-size="24" font-weight="600" letter-spacing="0">Savings</text>
  </g>
  <rect x="253" y="62" width="110" height="4" fill="#f0b429"/>
</svg>
